<svg xmlns="http://www.w3.org/2000/svg" xmlns:xlink="http://www.w3.org/1999/xlink" width="500" zoomAndPan="magnify" viewBox="0 0 375 374.999991" height="500" preserveAspectRatio="xMidYMid meet" version="1.0"><path fill="#4f46e5" d="M 254.304688 20.355469 L 217.78125 189.957031 C 197.796875 170.402344 164.851562 162.1875 132.253906 171.261719 C 87.292969 183.769531 60.035156 224.4375 71.375 262.09375 C 74.503906 272.496094 80.261719 281.574219 87.898438 289.007812 C 95.527344 296.449219 105.039062 302.230469 115.695312 306.046875 C 64.828125 297.523438 53.09375 253.597656 50.476562 237.324219 L 44.769531 234.15625 C 5.710938 212.484375 5.710938 158.300781 44.769531 136.625 L 228.8125 34.5 L 254.304688 20.355469 " fill-opacity="1" fill-rule="nonzero"/><path fill="#ff815d" d="M 362.976562 57.585938 L 362.976562 313.207031 C 362.976562 356.550781 314.152344 383.644531 275.097656 361.96875 L 175.820312 306.878906 C 199.210938 299.722656 217.558594 284.882812 227.78125 266.941406 C 231.335938 260.699219 233.902344 254.09375 235.363281 247.308594 L 264.949219 109.921875 L 269.683594 87.945312 C 279.136719 94.027344 291.476562 103.292969 303.769531 116.402344 C 340.964844 156.0625 316.929688 193.632812 316.5 194.296875 C 316.496094 194.304688 316.496094 194.304688 316.496094 194.3125 C 316.496094 194.3125 374.992188 163.121094 326.578125 91.570312 C 308.066406 64.207031 295.976562 30.164062 290.765625 13.640625 C 289.613281 9.992188 287.28125 6.886719 284.214844 4.6875 C 321.347656 -8.605469 362.976562 17.558594 362.976562 57.585938 " fill-opacity="1" fill-rule="nonzero"/><path fill="#ff3c88" d="M 316.5 194.296875 C 330.183594 149.425781 281.84375 118.996094 264.949219 109.921875 L 269.683594 87.945312 C 279.136719 94.027344 291.476562 103.292969 303.769531 116.402344 C 340.964844 156.0625 316.929688 193.632812 316.5 194.296875 " fill-opacity="1" fill-rule="nonzero"/><path fill="#2e3192" d="M 254.304688 20.355469 L 217.78125 189.957031 L 228.8125 34.5 Z M 254.304688 20.355469 " fill-opacity="1" fill-rule="nonzero"/></svg>