<svg xmlns="http://www.w3.org/2000/svg" xmlns:xlink="http://www.w3.org/1999/xlink" width="500" zoomAndPan="magnify" viewBox="0 0 375 374.999991" height="500" preserveAspectRatio="xMidYMid meet" version="1.0"><defs><g/><clipPath id="1c60e428e5"><path d="M 49.609375 161.851562 L 115.96875 161.851562 L 115.96875 237.800781 L 49.609375 237.800781 Z M 49.609375 161.851562 " clip-rule="nonzero"/></clipPath><clipPath id="bc4e7cbb9d"><path d="M 115.96875 199.773438 L 49.609375 237.691406 L 49.609375 161.851562 Z M 115.96875 199.773438 " clip-rule="nonzero"/></clipPath><clipPath id="35fa1edd4d"><path d="M 106.660156 161.851562 L 125.289062 161.851562 L 125.289062 237.691406 L 106.660156 237.691406 Z M 106.660156 161.851562 " clip-rule="nonzero"/></clipPath></defs><g clip-path="url(#1c60e428e5)"><g clip-path="url(#bc4e7cbb9d)"><path fill="#1c2120" d="M 115.96875 161.851562 L 115.96875 237.800781 L 49.609375 237.800781 L 49.609375 161.851562 Z M 115.96875 161.851562 " fill-opacity="1" fill-rule="nonzero"/></g></g><g clip-path="url(#35fa1edd4d)"><path fill="#1c2120" d="M 106.660156 161.851562 L 125.289062 161.851562 L 125.289062 237.691406 L 106.660156 237.691406 Z M 106.660156 161.851562 " fill-opacity="1" fill-rule="nonzero"/></g><path stroke-linecap="butt" transform="matrix(0.000000001309, -0.75, 0.75, 0.000000001309, 137.575937, 237.686104)" fill="none" stroke-linejoin="miter" d="M -0.00186188 0.997709 L 99.529395 0.997709 " stroke="#1c2120" stroke-width="2" stroke-opacity="1" stroke-miterlimit="4"/><g fill="#1c2120" fill-opacity="1"><g transform="translate(144.499917, 215.147153)"><g><path d="M 11.484375 -26.109375 C 10.585938 -26.109375 9.84375 -25.835938 9.25 -25.296875 C 8.65625 -24.753906 8.359375 -24.039062 8.359375 -23.15625 C 8.359375 -22.550781 8.476562 -22.007812 8.71875 -21.53125 C 8.957031 -21.0625 9.441406 -20.5625 10.171875 -20.03125 C 10.910156 -19.507812 12.003906 -18.910156 13.453125 -18.234375 C 15.640625 -17.191406 17.328125 -16.195312 18.515625 -15.25 C 19.703125 -14.300781 20.523438 -13.304688 20.984375 -12.265625 C 21.453125 -11.234375 21.6875 -10.015625 21.6875 -8.609375 C 21.6875 -6.835938 21.285156 -5.265625 20.484375 -3.890625 C 19.679688 -2.515625 18.535156 -1.4375 17.046875 -0.65625 C 15.566406 0.125 13.828125 0.515625 11.828125 0.515625 C 8.703125 0.515625 6.296875 -0.34375 4.609375 -2.0625 C 2.929688 -3.789062 2.023438 -6.375 1.890625 -9.8125 L 7.703125 -10.328125 C 7.765625 -8.816406 7.972656 -7.625 8.328125 -6.75 C 8.679688 -5.875 9.164062 -5.253906 9.78125 -4.890625 C 10.40625 -4.523438 11.171875 -4.34375 12.078125 -4.34375 C 12.910156 -4.34375 13.625 -4.519531 14.21875 -4.875 C 14.820312 -5.238281 15.273438 -5.707031 15.578125 -6.28125 C 15.878906 -6.863281 16.03125 -7.492188 16.03125 -8.171875 C 16.03125 -8.878906 15.851562 -9.519531 15.5 -10.09375 C 15.15625 -10.675781 14.535156 -11.269531 13.640625 -11.875 C 12.742188 -12.476562 11.472656 -13.140625 9.828125 -13.859375 C 7.316406 -14.960938 5.5 -16.210938 4.375 -17.609375 C 3.25 -19.015625 2.6875 -20.679688 2.6875 -22.609375 C 2.6875 -24.210938 3.054688 -25.640625 3.796875 -26.890625 C 4.535156 -28.140625 5.578125 -29.109375 6.921875 -29.796875 C 8.273438 -30.492188 9.84375 -30.84375 11.625 -30.84375 C 14.601562 -30.84375 16.820312 -30.066406 18.28125 -28.515625 C 19.738281 -26.960938 20.601562 -24.726562 20.875 -21.8125 L 15.125 -21.5 C 14.882812 -24.570312 13.671875 -26.109375 11.484375 -26.109375 Z M 11.484375 -26.109375 "/></g></g></g><g fill="#1c2120" fill-opacity="1"><g transform="translate(164.722668, 215.147153)"><g><path d="M 24.0625 -14.75 C 24.0625 -11.59375 23.726562 -8.894531 23.0625 -6.65625 C 22.40625 -4.414062 21.257812 -2.660156 19.625 -1.390625 C 18 -0.117188 15.800781 0.515625 13.03125 0.515625 C 10.09375 0.515625 7.8125 -0.226562 6.1875 -1.71875 C 4.5625 -3.21875 3.457031 -5.140625 2.875 -7.484375 C 2.289062 -9.828125 2 -12.519531 2 -15.5625 C 2 -25.75 5.65625 -30.84375 12.96875 -30.84375 C 16.71875 -30.84375 19.503906 -29.535156 21.328125 -26.921875 C 23.148438 -24.316406 24.0625 -20.257812 24.0625 -14.75 Z M 7.984375 -15.5625 C 7.984375 -12.800781 8.148438 -10.617188 8.484375 -9.015625 C 8.828125 -7.421875 9.367188 -6.265625 10.109375 -5.546875 C 10.847656 -4.835938 11.835938 -4.484375 13.078125 -4.484375 C 14.515625 -4.484375 15.59375 -4.925781 16.3125 -5.8125 C 17.039062 -6.707031 17.515625 -7.9375 17.734375 -9.5 C 17.960938 -11.070312 18.078125 -13.160156 18.078125 -15.765625 C 18.078125 -19.023438 17.695312 -21.519531 16.9375 -23.25 C 16.1875 -24.976562 14.878906 -25.84375 13.015625 -25.84375 C 11.578125 -25.84375 10.488281 -25.328125 9.75 -24.296875 C 9.019531 -23.273438 8.539062 -22.03125 8.3125 -20.5625 C 8.09375 -19.101562 7.984375 -17.4375 7.984375 -15.5625 Z M 7.984375 -15.5625 "/></g></g></g><g fill="#1c2120" fill-opacity="1"><g transform="translate(187.614547, 215.147153)"><g><path d="M 17.484375 0 L 8.109375 -19.859375 L 8.0625 -19.859375 L 8.359375 0 L 3.109375 0 L 3.109375 -30.328125 L 8.984375 -30.328125 L 17.71875 -11.234375 L 17.75 -11.234375 L 17.75 -30.328125 L 23.109375 -30.328125 L 23.109375 0 Z M 17.484375 0 "/></g></g></g><g fill="#1c2120" fill-opacity="1"><g transform="translate(210.651262, 215.147153)"><g><path d="M 23.234375 -22.140625 L 17.5 -20.921875 C 16.90625 -24.203125 15.445312 -25.84375 13.125 -25.84375 C 11.613281 -25.84375 10.484375 -25.375 9.734375 -24.4375 C 8.984375 -23.5 8.503906 -22.316406 8.296875 -20.890625 C 8.085938 -19.472656 7.984375 -17.703125 7.984375 -15.578125 C 7.984375 -12.722656 8.148438 -10.5 8.484375 -8.90625 C 8.828125 -7.320312 9.398438 -6.179688 10.203125 -5.484375 C 11.015625 -4.796875 12.160156 -4.453125 13.640625 -4.453125 C 15.253906 -4.453125 16.703125 -5.003906 17.984375 -6.109375 L 17.984375 -11.1875 L 13.421875 -11.1875 L 13.421875 -16 L 23.734375 -16 L 23.734375 -3.234375 C 22.429688 -2.234375 21.210938 -1.460938 20.078125 -0.921875 C 18.953125 -0.390625 17.835938 -0.0195312 16.734375 0.1875 C 15.628906 0.40625 14.394531 0.515625 13.03125 0.515625 C 9.4375 0.515625 6.695312 -0.707031 4.8125 -3.15625 C 2.9375 -5.613281 2 -9.453125 2 -14.671875 C 2 -18.503906 2.429688 -21.613281 3.296875 -24 C 4.171875 -26.382812 5.445312 -28.117188 7.125 -29.203125 C 8.8125 -30.296875 10.925781 -30.84375 13.46875 -30.84375 C 15.382812 -30.84375 17.007812 -30.546875 18.34375 -29.953125 C 19.675781 -29.367188 20.742188 -28.4375 21.546875 -27.15625 C 22.359375 -25.882812 22.921875 -24.210938 23.234375 -22.140625 Z M 23.234375 -22.140625 "/></g></g></g><g fill="#1c2120" fill-opacity="1"><g transform="translate(233.563831, 215.147153)"><g><path d="M 20.609375 -22.828125 C 20.609375 -19.484375 19.03125 -17.21875 15.875 -16.03125 C 19.84375 -15.269531 21.828125 -12.75 21.828125 -8.46875 C 21.828125 -6.820312 21.492188 -5.363281 20.828125 -4.09375 C 20.171875 -2.820312 19.160156 -1.820312 17.796875 -1.09375 C 16.441406 -0.363281 14.765625 0 12.765625 0 L 3.109375 0 L 3.109375 -30.328125 L 12.234375 -30.328125 C 13.898438 -30.328125 15.359375 -30.039062 16.609375 -29.46875 C 17.867188 -28.894531 18.847656 -28.039062 19.546875 -26.90625 C 20.253906 -25.78125 20.609375 -24.421875 20.609375 -22.828125 Z M 8.859375 -18.0625 L 10.609375 -18.0625 C 12.046875 -18.09375 13.132812 -18.414062 13.875 -19.03125 C 14.613281 -19.644531 14.984375 -20.570312 14.984375 -21.8125 C 14.984375 -23.0625 14.632812 -23.992188 13.9375 -24.609375 C 13.238281 -25.222656 12.144531 -25.53125 10.65625 -25.53125 L 8.859375 -25.53125 Z M 8.859375 -4.796875 L 11.109375 -4.796875 C 12.765625 -4.828125 13.96875 -5.203125 14.71875 -5.921875 C 15.46875 -6.648438 15.84375 -7.722656 15.84375 -9.140625 C 15.84375 -10.410156 15.484375 -11.414062 14.765625 -12.15625 C 14.054688 -12.894531 12.789062 -13.265625 10.96875 -13.265625 L 8.859375 -13.265625 Z M 8.859375 -4.796875 "/></g></g></g><g fill="#1c2120" fill-opacity="1"><g transform="translate(254.076254, 215.147153)"><g><path d="M 24.0625 -14.75 C 24.0625 -11.59375 23.726562 -8.894531 23.0625 -6.65625 C 22.40625 -4.414062 21.257812 -2.660156 19.625 -1.390625 C 18 -0.117188 15.800781 0.515625 13.03125 0.515625 C 10.09375 0.515625 7.8125 -0.226562 6.1875 -1.71875 C 4.5625 -3.21875 3.457031 -5.140625 2.875 -7.484375 C 2.289062 -9.828125 2 -12.519531 2 -15.5625 C 2 -25.75 5.65625 -30.84375 12.96875 -30.84375 C 16.71875 -30.84375 19.503906 -29.535156 21.328125 -26.921875 C 23.148438 -24.316406 24.0625 -20.257812 24.0625 -14.75 Z M 7.984375 -15.5625 C 7.984375 -12.800781 8.148438 -10.617188 8.484375 -9.015625 C 8.828125 -7.421875 9.367188 -6.265625 10.109375 -5.546875 C 10.847656 -4.835938 11.835938 -4.484375 13.078125 -4.484375 C 14.515625 -4.484375 15.59375 -4.925781 16.3125 -5.8125 C 17.039062 -6.707031 17.515625 -7.9375 17.734375 -9.5 C 17.960938 -11.070312 18.078125 -13.160156 18.078125 -15.765625 C 18.078125 -19.023438 17.695312 -21.519531 16.9375 -23.25 C 16.1875 -24.976562 14.878906 -25.84375 13.015625 -25.84375 C 11.578125 -25.84375 10.488281 -25.328125 9.75 -24.296875 C 9.019531 -23.273438 8.539062 -22.03125 8.3125 -20.5625 C 8.09375 -19.101562 7.984375 -17.4375 7.984375 -15.5625 Z M 7.984375 -15.5625 "/></g></g></g><g fill="#1c2120" fill-opacity="1"><g transform="translate(276.968133, 215.147153)"><g><path d="M 23.4375 0 L 17.015625 0 L 12.703125 -8.46875 C 12.523438 -8.8125 12.242188 -9.414062 11.859375 -10.28125 C 11.453125 -9.425781 11.164062 -8.84375 11 -8.53125 L 6.640625 0 L -0.0625 0 L 8.375 -15.828125 L 0.765625 -30.328125 L 7.296875 -30.328125 L 10.84375 -22.703125 C 11.3125 -21.691406 11.648438 -20.914062 11.859375 -20.375 C 12.035156 -20.84375 12.375 -21.625 12.875 -22.71875 L 16.40625 -30.328125 L 22.828125 -30.328125 L 15.1875 -15.828125 Z M 23.4375 0 "/></g></g></g><g fill="#1c2120" fill-opacity="1"><g transform="translate(297.170192, 215.147153)"><g><path d="M 24.0625 -16.0625 C 24.0625 -12.175781 23.726562 -9.078125 23.0625 -6.765625 C 22.394531 -4.453125 21.273438 -2.742188 19.703125 -1.640625 C 18.140625 -0.546875 15.988281 0 13.25 0 L 3.109375 0 L 3.109375 -30.328125 L 12.8125 -30.328125 C 15.613281 -30.328125 17.835938 -29.773438 19.484375 -28.671875 C 21.128906 -27.566406 22.300781 -25.972656 23 -23.890625 C 23.707031 -21.816406 24.0625 -19.207031 24.0625 -16.0625 Z M 8.859375 -4.78125 L 12 -4.78125 C 13.875 -4.78125 15.25 -5.210938 16.125 -6.078125 C 17 -6.953125 17.539062 -8.082031 17.75 -9.46875 C 17.96875 -10.851562 18.078125 -12.757812 18.078125 -15.1875 C 18.078125 -18.132812 17.878906 -20.335938 17.484375 -21.796875 C 17.085938 -23.265625 16.4375 -24.253906 15.53125 -24.765625 C 14.625 -25.285156 13.3125 -25.546875 11.59375 -25.546875 L 8.859375 -25.546875 Z M 8.859375 -4.78125 "/></g></g></g></svg>